<?xml version="1.0" encoding="windows-1252" standalone="no"?>
<svg xmlns="http://www.w3.org/2000/svg" xmlns:xlink="http://www.w3.org/1999/xlink" contentStyleType="text/css" height="796px" preserveAspectRatio="none" style="width:597px;height:796px;background:#777777;" version="1.1" viewBox="0 0 597 796" width="597px" zoomAndPan="magnify"><defs/><g><rect fill="#777777" height="796" style="stroke:none;stroke-width:1.0;" width="597" x="0" y="0"/><!--class Account--><g id="elem_Account"><rect codeLine="6" fill="#2E2E2E" height="93.2188" id="Account" rx="2.5" ry="2.5" style="stroke:#1B1B1B;stroke-width:0.5;" width="123" x="241" y="390"/><ellipse cx="276.5" cy="403" fill="#DA70D6" rx="8" ry="8" style="stroke:#181818;stroke-width:1.0;"/><path d="M272.0469,399.4844 L279.4375,399.4844 L279.4375,401.0469 L276.7813,401.0469 L276.7813,407.5 L274.7188,407.5 L274.7188,401.0469 L272.0469,401.0469 L272.0469,399.4844 Z " fill="#000000"/><text fill="#AAAAAA" font-family="Verdana" font-size="11" lengthAdjust="spacing" textLength="45" x="292.5" y="406.8081">Account</text><line style="stroke:#1B1B1B;stroke-width:0.5;" x1="242" x2="363" y1="416" y2="416"/><text fill="#AAAAAA" font-family="sans-serif" font-size="11" font-weight="bold" lengthAdjust="spacing" text-decoration="underline" textLength="103" x="247" y="430.2104">account_id : int</text><text fill="#4169E1" font-family="sans-serif" font-size="11" font-weight="bold" lengthAdjust="spacing" textLength="99" x="247" y="443.0151">district_id : int</text><text fill="#AAAAAA" font-family="sans-serif" font-size="11" lengthAdjust="spacing" textLength="111" x="247" y="455.8198">frequency : varchar</text><text fill="#AAAAAA" font-family="sans-serif" font-size="11" lengthAdjust="spacing" textLength="51" x="247" y="468.6245">date : int</text><line style="stroke:#1B1B1B;stroke-width:0.5;" x1="242" x2="363" y1="475.2188" y2="475.2188"/></g><!--class Card--><g id="elem_Card"><rect codeLine="13" fill="#2E2E2E" height="93.2188" id="Card" rx="2.5" ry="2.5" style="stroke:#1B1B1B;stroke-width:0.5;" width="112" x="476.5" y="7"/><ellipse cx="516" cy="20" fill="#DA70D6" rx="8" ry="8" style="stroke:#181818;stroke-width:1.0;"/><path d="M511.5469,16.4844 L518.9375,16.4844 L518.9375,18.0469 L516.2813,18.0469 L516.2813,24.5 L514.2188,24.5 L514.2188,18.0469 L511.5469,18.0469 L511.5469,16.4844 Z " fill="#000000"/><text fill="#AAAAAA" font-family="Verdana" font-size="11" lengthAdjust="spacing" textLength="26" x="532" y="23.8081">Card</text><line style="stroke:#1B1B1B;stroke-width:0.5;" x1="477.5" x2="587.5" y1="33" y2="33"/><text fill="#AAAAAA" font-family="sans-serif" font-size="11" font-weight="bold" lengthAdjust="spacing" text-decoration="underline" textLength="78" x="482.5" y="47.2104">card_id : int</text><text fill="#4169E1" font-family="sans-serif" font-size="11" font-weight="bold" lengthAdjust="spacing" textLength="76" x="482.5" y="60.0151">disp_id : int</text><text fill="#AAAAAA" font-family="sans-serif" font-size="11" lengthAdjust="spacing" textLength="79" x="482.5" y="72.8198">type : varchar</text><text fill="#AAAAAA" font-family="sans-serif" font-size="11" lengthAdjust="spacing" textLength="100" x="482.5" y="85.6245">issued : datetime</text><line style="stroke:#1B1B1B;stroke-width:0.5;" x1="477.5" x2="587.5" y1="92.2188" y2="92.2188"/></g><!--class Client--><g id="elem_Client"><rect codeLine="20" fill="#2E2E2E" height="80.4141" id="Client" rx="2.5" ry="2.5" style="stroke:#1B1B1B;stroke-width:0.5;" width="112" x="476.5" y="396.5"/><ellipse cx="512.5" cy="409.5" fill="#DA70D6" rx="8" ry="8" style="stroke:#181818;stroke-width:1.0;"/><path d="M508.0469,405.9844 L515.4375,405.9844 L515.4375,407.5469 L512.7813,407.5469 L512.7813,414 L510.7188,414 L510.7188,407.5469 L508.0469,407.5469 L508.0469,405.9844 Z " fill="#000000"/><text fill="#AAAAAA" font-family="Verdana" font-size="11" lengthAdjust="spacing" textLength="33" x="528.5" y="413.3081">Client</text><line style="stroke:#1B1B1B;stroke-width:0.5;" x1="477.5" x2="587.5" y1="422.5" y2="422.5"/><text fill="#AAAAAA" font-family="sans-serif" font-size="11" font-weight="bold" lengthAdjust="spacing" text-decoration="underline" textLength="87" x="482.5" y="436.7104">client_id : int</text><text fill="#AAAAAA" font-family="sans-serif" font-size="11" lengthAdjust="spacing" textLength="100" x="482.5" y="449.5151">birth_number : int</text><text fill="#4169E1" font-family="sans-serif" font-size="11" font-weight="bold" lengthAdjust="spacing" textLength="99" x="482.5" y="462.3198">district_id : int</text><line style="stroke:#1B1B1B;stroke-width:0.5;" x1="477.5" x2="587.5" y1="468.9141" y2="468.9141"/></g><!--class Disp--><g id="elem_Disp"><rect codeLine="26" fill="#2E2E2E" height="93.2188" id="Disp" rx="2.5" ry="2.5" style="stroke:#1B1B1B;stroke-width:0.5;" width="115" x="475" y="198.5"/><ellipse cx="516.5" cy="211.5" fill="#DA70D6" rx="8" ry="8" style="stroke:#181818;stroke-width:1.0;"/><path d="M512.0469,207.9844 L519.4375,207.9844 L519.4375,209.5469 L516.7813,209.5469 L516.7813,216 L514.7188,216 L514.7188,209.5469 L512.0469,209.5469 L512.0469,207.9844 Z " fill="#000000"/><text fill="#AAAAAA" font-family="Verdana" font-size="11" lengthAdjust="spacing" textLength="25" x="532.5" y="215.3081">Disp</text><line style="stroke:#1B1B1B;stroke-width:0.5;" x1="476" x2="589" y1="224.5" y2="224.5"/><text fill="#AAAAAA" font-family="sans-serif" font-size="11" font-weight="bold" lengthAdjust="spacing" text-decoration="underline" textLength="76" x="481" y="238.7104">disp_id : int</text><text fill="#4169E1" font-family="sans-serif" font-size="11" font-weight="bold" lengthAdjust="spacing" textLength="87" x="481" y="251.5151">client_id : int</text><text fill="#4169E1" font-family="sans-serif" font-size="11" font-weight="bold" lengthAdjust="spacing" textLength="103" x="481" y="264.3198">account_id : int</text><text fill="#AAAAAA" font-family="sans-serif" font-size="11" lengthAdjust="spacing" textLength="79" x="481" y="277.1245">type : varchar</text><line style="stroke:#1B1B1B;stroke-width:0.5;" x1="476" x2="589" y1="283.7188" y2="283.7188"/></g><!--class District--><g id="elem_District"><rect codeLine="34" fill="#2E2E2E" height="246.875" id="District" rx="2.5" ry="2.5" style="stroke:#1B1B1B;stroke-width:0.5;" width="367" x="119" y="543"/><ellipse cx="279.5" cy="556" fill="#DA70D6" rx="8" ry="8" style="stroke:#181818;stroke-width:1.0;"/><path d="M275.0469,552.4844 L282.4375,552.4844 L282.4375,554.0469 L279.7813,554.0469 L279.7813,560.5 L277.7188,560.5 L277.7188,554.0469 L275.0469,554.0469 L275.0469,552.4844 Z " fill="#000000"/><text fill="#AAAAAA" font-family="Verdana" font-size="11" lengthAdjust="spacing" textLength="39" x="295.5" y="559.8081">District</text><line style="stroke:#1B1B1B;stroke-width:0.5;" x1="120" x2="485" y1="569" y2="569"/><text fill="#AAAAAA" font-family="sans-serif" font-size="11" font-weight="bold" lengthAdjust="spacing" text-decoration="underline" textLength="48" x="125" y="583.2104">A1 : int</text><text fill="#AAAAAA" font-family="sans-serif" font-size="11" lengthAdjust="spacing" textLength="67" x="177" y="583.2104">// District ID</text><text fill="#AAAAAA" font-family="sans-serif" font-size="11" lengthAdjust="spacing" textLength="160" x="125" y="596.0151">A2 : varchar // District name</text><text fill="#AAAAAA" font-family="sans-serif" font-size="11" lengthAdjust="spacing" textLength="123" x="125" y="608.8198">A3 : varchar // Region</text><text fill="#AAAAAA" font-family="sans-serif" font-size="11" lengthAdjust="spacing" textLength="147" x="125" y="621.6245">A4 : int // Total population</text><text fill="#AAAAAA" font-family="sans-serif" font-size="11" lengthAdjust="spacing" textLength="329" x="125" y="634.4292">A5 : int // Number of municipalities with &lt; 500 inhabitants</text><text fill="#AAAAAA" font-family="sans-serif" font-size="11" lengthAdjust="spacing" textLength="348" x="125" y="647.2339">A6 : int // Number of municipalities with 500-1999 inhabitants</text><text fill="#AAAAAA" font-family="sans-serif" font-size="11" lengthAdjust="spacing" textLength="355" x="125" y="660.0386">A7 : int // Number of municipalities with 2000-9999 inhabitants</text><text fill="#AAAAAA" font-family="sans-serif" font-size="11" lengthAdjust="spacing" textLength="352" x="125" y="672.8433">A8 : int // Number of municipalities with &gt;= 10000 inhabitants</text><text fill="#AAAAAA" font-family="sans-serif" font-size="11" lengthAdjust="spacing" textLength="150" x="125" y="685.6479">A9 : int // Number of cities</text><text fill="#AAAAAA" font-family="sans-serif" font-size="11" lengthAdjust="spacing" textLength="219" x="125" y="698.4526">A10 : float // Ratio of urban inhabitants</text><text fill="#AAAAAA" font-family="sans-serif" font-size="11" lengthAdjust="spacing" textLength="150" x="125" y="711.2573">A11 : int // Average salary</text><text fill="#AAAAAA" font-family="sans-serif" font-size="11" lengthAdjust="spacing" textLength="210" x="125" y="724.062">A12 : float // Unemployment rate '95</text><text fill="#AAAAAA" font-family="sans-serif" font-size="11" lengthAdjust="spacing" textLength="210" x="125" y="736.8667">A13 : float // Unemployment rate '96</text><text fill="#AAAAAA" font-family="sans-serif" font-size="11" lengthAdjust="spacing" textLength="330" x="125" y="749.6714">A14 : int // Number of entrepreneurs per 1000 inhabitants</text><text fill="#AAAAAA" font-family="sans-serif" font-size="11" lengthAdjust="spacing" textLength="251" x="125" y="762.4761">A15 : int // Number of committed crimes '95</text><text fill="#AAAAAA" font-family="sans-serif" font-size="11" lengthAdjust="spacing" textLength="251" x="125" y="775.2808">A16 : int // Number of committed crimes '97</text><line style="stroke:#1B1B1B;stroke-width:0.5;" x1="120" x2="485" y1="781.875" y2="781.875"/></g><!--class Loan--><g id="elem_Loan"><rect codeLine="54" fill="#2E2E2E" height="131.6328" id="Loan" rx="2.5" ry="2.5" style="stroke:#1B1B1B;stroke-width:0.5;" width="125" x="7" y="179"/><ellipse cx="52.5" cy="192" fill="#DA70D6" rx="8" ry="8" style="stroke:#181818;stroke-width:1.0;"/><path d="M48.0469,188.4844 L55.4375,188.4844 L55.4375,190.0469 L52.7813,190.0469 L52.7813,196.5 L50.7188,196.5 L50.7188,190.0469 L48.0469,190.0469 L48.0469,188.4844 Z " fill="#000000"/><text fill="#AAAAAA" font-family="Verdana" font-size="11" lengthAdjust="spacing" textLength="27" x="68.5" y="195.8081">Loan</text><line style="stroke:#1B1B1B;stroke-width:0.5;" x1="8" x2="131" y1="205" y2="205"/><text fill="#AAAAAA" font-family="sans-serif" font-size="11" font-weight="bold" lengthAdjust="spacing" text-decoration="underline" textLength="78" x="13" y="219.2104">loan_id : int</text><text fill="#4169E1" font-family="sans-serif" font-size="11" font-weight="bold" lengthAdjust="spacing" textLength="103" x="13" y="232.0151">account_id : int</text><text fill="#AAAAAA" font-family="sans-serif" font-size="11" lengthAdjust="spacing" textLength="51" x="13" y="244.8198">date : int</text><text fill="#AAAAAA" font-family="sans-serif" font-size="11" lengthAdjust="spacing" textLength="68" x="13" y="257.6245">amount : int</text><text fill="#AAAAAA" font-family="sans-serif" font-size="11" lengthAdjust="spacing" textLength="71" x="13" y="270.4292">duration : int</text><text fill="#AAAAAA" font-family="sans-serif" font-size="11" lengthAdjust="spacing" textLength="113" x="13" y="283.2339">payments : decimal</text><text fill="#AAAAAA" font-family="sans-serif" font-size="11" lengthAdjust="spacing" textLength="69" x="13" y="296.0386">status : char</text><line style="stroke:#1B1B1B;stroke-width:0.5;" x1="8" x2="131" y1="302.6328" y2="302.6328"/></g><!--class Order--><g id="elem_Order"><rect codeLine="64" fill="#2E2E2E" height="118.8281" id="Order" rx="2.5" ry="2.5" style="stroke:#1B1B1B;stroke-width:0.5;" width="118" x="167.5" y="185.5"/><ellipse cx="207" cy="198.5" fill="#DA70D6" rx="8" ry="8" style="stroke:#181818;stroke-width:1.0;"/><path d="M202.5469,194.9844 L209.9375,194.9844 L209.9375,196.5469 L207.2813,196.5469 L207.2813,203 L205.2188,203 L205.2188,196.5469 L202.5469,196.5469 L202.5469,194.9844 Z " fill="#000000"/><text fill="#AAAAAA" font-family="Verdana" font-size="11" lengthAdjust="spacing" textLength="32" x="223" y="202.3081">Order</text><line style="stroke:#1B1B1B;stroke-width:0.5;" x1="168.5" x2="284.5" y1="211.5" y2="211.5"/><text fill="#AAAAAA" font-family="sans-serif" font-size="11" font-weight="bold" lengthAdjust="spacing" text-decoration="underline" textLength="86" x="173.5" y="225.7104">order_id : int</text><text fill="#4169E1" font-family="sans-serif" font-size="11" font-weight="bold" lengthAdjust="spacing" textLength="103" x="173.5" y="238.5151">account_id : int</text><text fill="#AAAAAA" font-family="sans-serif" font-size="11" lengthAdjust="spacing" textLength="79" x="173.5" y="251.3198">bank_to : char</text><text fill="#AAAAAA" font-family="sans-serif" font-size="11" lengthAdjust="spacing" textLength="86" x="173.5" y="264.1245">account_to : int</text><text fill="#AAAAAA" font-family="sans-serif" font-size="11" lengthAdjust="spacing" textLength="99" x="173.5" y="276.9292">amount : decimal</text><text fill="#AAAAAA" font-family="sans-serif" font-size="11" lengthAdjust="spacing" textLength="106" x="173.5" y="289.7339">k_symbol : varchar</text><line style="stroke:#1B1B1B;stroke-width:0.5;" x1="168.5" x2="284.5" y1="296.3281" y2="296.3281"/></g><!--class Trans--><g id="elem_Trans"><rect codeLine="73" fill="#2E2E2E" height="170.0469" id="Trans" rx="2.5" ry="2.5" style="stroke:#1B1B1B;stroke-width:0.5;" width="119" x="321" y="160"/><ellipse cx="361.5" cy="173" fill="#DA70D6" rx="8" ry="8" style="stroke:#181818;stroke-width:1.0;"/><path d="M357.0469,169.4844 L364.4375,169.4844 L364.4375,171.0469 L361.7813,171.0469 L361.7813,177.5 L359.7188,177.5 L359.7188,171.0469 L357.0469,171.0469 L357.0469,169.4844 Z " fill="#000000"/><text fill="#AAAAAA" font-family="Verdana" font-size="11" lengthAdjust="spacing" textLength="31" x="377.5" y="176.8081">Trans</text><line style="stroke:#1B1B1B;stroke-width:0.5;" x1="322" x2="439" y1="186" y2="186"/><text fill="#AAAAAA" font-family="sans-serif" font-size="11" font-weight="bold" lengthAdjust="spacing" text-decoration="underline" textLength="85" x="327" y="200.2104">trans_id : int</text><text fill="#4169E1" font-family="sans-serif" font-size="11" font-weight="bold" lengthAdjust="spacing" textLength="103" x="327" y="213.0151">account_id : int</text><text fill="#AAAAAA" font-family="sans-serif" font-size="11" lengthAdjust="spacing" textLength="51" x="327" y="225.8198">date : int</text><text fill="#AAAAAA" font-family="sans-serif" font-size="11" lengthAdjust="spacing" textLength="79" x="327" y="238.6245">type : varchar</text><text fill="#AAAAAA" font-family="sans-serif" font-size="11" lengthAdjust="spacing" textLength="107" x="327" y="251.4292">operation : varchar</text><text fill="#AAAAAA" font-family="sans-serif" font-size="11" lengthAdjust="spacing" textLength="99" x="327" y="264.2339">amount : decimal</text><text fill="#AAAAAA" font-family="sans-serif" font-size="11" lengthAdjust="spacing" textLength="101" x="327" y="277.0386">balance : decimal</text><text fill="#AAAAAA" font-family="sans-serif" font-size="11" lengthAdjust="spacing" textLength="106" x="327" y="289.8433">k_symbol : varchar</text><text fill="#AAAAAA" font-family="sans-serif" font-size="11" lengthAdjust="spacing" textLength="62" x="327" y="302.6479">bank : char</text><text fill="#AAAAAA" font-family="sans-serif" font-size="11" lengthAdjust="spacing" textLength="69" x="327" y="315.4526">account : int</text><line style="stroke:#1B1B1B;stroke-width:0.5;" x1="322" x2="439" y1="322.0469" y2="322.0469"/></g><!--link Account to District--><g id="link_Account_District"><path codeLine="86" d="M302.5,483.091 C302.5,500.635 302.5,513.609 302.5,534.984 " fill="none" id="Account-to-District" style="stroke:#FFFFFF;stroke-width:1.0;"/><line style="stroke:#FFFFFF;stroke-width:1.0;" x1="302.5" x2="310.5" y1="534.984" y2="542.984"/><line style="stroke:#FFFFFF;stroke-width:1.0;" x1="302.5" x2="294.5" y1="534.984" y2="542.984"/><line style="stroke:#FFFFFF;stroke-width:1.0;" x1="302.5" x2="302.5" y1="534.984" y2="542.984"/></g><!--link Disp to Account--><g id="link_Disp_Account"><path codeLine="87" d="M495.481,291.522 C483.928,304.575 470.731,318.401 457.5,330 C428.739,355.214 393.727,379.508 364.26,398.414 " fill="none" id="Disp-Account" style="stroke:#FFFFFF;stroke-width:1.0;"/></g><!--link Disp to Client--><g id="link_Disp_Client"><path codeLine="88" d="M532.5,291.873 C532.5,323.858 532.5,366.075 532.5,396.451 " fill="none" id="Disp-Client" style="stroke:#FFFFFF;stroke-width:1.0;"/></g><!--link Card to Disp--><g id="link_Card_Disp"><path codeLine="89" d="M532.5,100.373 C532.5,130.057 532.5,168.556 532.5,198.222 " fill="none" id="Card-Disp" style="stroke:#FFFFFF;stroke-width:1.0;"/></g><!--link Loan to Account--><g id="link_Loan_Account"><path codeLine="90" d="M128.907,311.133 C135.667,317.704 142.608,324.115 149.5,330 C177.963,354.304 212.046,378.244 240.811,397.159 " fill="none" id="Loan-Account" style="stroke:#FFFFFF;stroke-width:1.0;"/></g><!--link Order to Account--><g id="link_Order_Account"><path codeLine="91" d="M250.026,304.661 C261.012,332.054 273.896,364.177 284.147,389.739 " fill="none" id="Order-Account" style="stroke:#FFFFFF;stroke-width:1.0;"/></g><!--link Trans to Account--><g id="link_Trans_Account"><path codeLine="92" d="M345.834,330.221 C337.371,350.782 328.632,372.012 321.239,389.974 " fill="none" id="Trans-Account" style="stroke:#FFFFFF;stroke-width:1.0;"/></g><!--SRC=[fLLTRzem57tFht2Vraf3a7xGKMMHwCgcQbqx8VRG9-GubsBXs9a_kg5g_tss4y20jL8jJycvn-UUUtDj7-avL80abAK4fJebbeid2S2Jen9cb0EQ3A_lHiSQVkiJH1XM2hbtb6NeUF9UI3AdvGdAypN_-_Zsst3yEFqwUcnNPIRFYjozPzqYpxfcG_xyC1xTVhaFoKGm8Q_6OedPDJEmlTG7yoHfJ0q94ORRHIy9ia-O6JUXAItH5QAMunbXkf8gBIdPfSma_3J0oTA2pzYMXwN7IwoXuIL_Lla_OLd6aXEB_pjplHFMonfs4bAb33YIownf1K5UHY5UDl6H7V62IZsVSbCL8DiI3cZ6EjkDjHlB5IaZb8nQ2GdnNxJJ2UjYOyDRZ5aPfgq4wdRHYeXkRpnnUBhHsufpR9lg6MVRZ34yKS6Rq7cZxE29q9YXMjI6ORqcN6m8zqsBnGnLXbD2Qyoefg3GBwhdA4CNlPwbpd51DUPQDUlxXwwtgplfO33ObxWyLEAqPpK6KOqFXsha7r5gPIAL368In2zj26dFCcPCOCyPkoOwYf45vljoQRhH6pw3n4-056POBjluQQZsWqDLCx6ixD0XwJRhky55IpnxZTXlYUUn2YnFGYs1Wv4ArHPCe-MdqKaWeggerdOd4satiGfizG_aNmQxu4vW7ji1jZh-vhqMd6dk4rUE4m2baNxG0wZ6ld7AdKj0Q8MPXvN6sZXmjMaRjm-o11cpArpWpNxjc2ocMgpIUCyjqQDxXOGM5rErh0h1jW-NnkT4OgvYFhKB_6zV8uUxi6EqQcs8HvqNTkWvWTVhMVKeqg3DrTLUcgZJULaVXOaxuos2sk3wkxbf4dVHkKy79su4Gwx_oI7Wkna0Vm40]--></g></svg>